<svg xmlns="http://www.w3.org/2000/svg" width="504" height="504" viewBox="0 0 504 504"><circle cx="252" cy="252" r="220" fill="#d8e9f7"/><path d="M349.38,71.33H142.32A7.21,7.21,0,0,0,136,75.1L29.9,270.74a7.2,7.2,0,0,0,6.33,10.63H105L172.7,148.76l98.52,129.76a7.2,7.2,0,0,0,5.73,2.85H467.77a7.2,7.2,0,0,0,6.16-10.92L355.54,74.8A7.22,7.22,0,0,0,349.38,71.33Z" fill="#94a727"/><path d="M435.14,281.37,424.61,419.23a14.55,14.55,0,0,1-14.5,13.44H94.86a14.55,14.55,0,0,1-14.52-13.76l-7.5-137.54,81.7-162.32H342.71Z" fill="#fff8e9"/><path d="M435.14,281.37l-10.46,137a15.47,15.47,0,0,1-15.42,14.29H95.73A15.48,15.48,0,0,1,80.29,418L72.84,281.37l81.7-162.32H342.71Z" fill="none" stroke="#3e4147" stroke-linecap="round" stroke-linejoin="round" stroke-width="2.92"/><path d="M349.38,71.33H142.32A7.21,7.21,0,0,0,136,75.1L29.9,270.74a7.2,7.2,0,0,0,6.33,10.63H72.84l80.09-159.11L271.22,278.52a7.2,7.2,0,0,0,5.73,2.85H467.77a7.2,7.2,0,0,0,6.16-10.92L355.54,74.8A7.22,7.22,0,0,0,349.38,71.33Z" fill="#4495d7"/><path d="M349.38,71.33H142.32A7.21,7.21,0,0,0,136,75.1L29.9,270.74a7.2,7.2,0,0,0,6.33,10.63H72.84l80.09-159.11L271.22,278.52a7.2,7.2,0,0,0,5.73,2.85H467.77a7.2,7.2,0,0,0,6.16-10.92L355.54,74.8A7.22,7.22,0,0,0,349.38,71.33Z" fill="none" stroke="#3e4147" stroke-linecap="round" stroke-linejoin="round" stroke-width="2.92"/><path d="M73.21,291.17l-2.33-35.12L141.18,119a5.4,5.4,0,0,1,9.15-.75l30.41,41.14,22.91,30.15" fill="#fff8e9" stroke="#3e4147" stroke-linecap="round" stroke-linejoin="round" stroke-width="2.92"/><line x1="263.69" y1="270.91" x2="257.5" y2="432.67" fill="none" stroke="#3e4147" stroke-linecap="round" stroke-linejoin="round" stroke-width="2.92"/><ellipse cx="158.13" cy="218" rx="23.93" ry="33.42" fill="#c4d7e9"/><ellipse cx="158.13" cy="218" rx="23.93" ry="33.42" fill="none" stroke="#3e4147" stroke-linecap="round" stroke-linejoin="round" stroke-width="2.92"/><line x1="158.13" y1="184.58" x2="158.13" y2="251.25" fill="none" stroke="#3e4147" stroke-linecap="round" stroke-linejoin="round" stroke-width="2.92"/><line x1="180.74" y1="218.09" x2="134.22" y2="218.09" fill="none" stroke="#3e4147" stroke-linecap="round" stroke-linejoin="round" stroke-width="2.92"/><rect x="125.66" y="294.84" width="81.7" height="137.82" fill="#f3783c"/><rect x="125.66" y="294.84" width="81.7" height="137.82" fill="none" stroke="#3e4147" stroke-linecap="round" stroke-linejoin="round" stroke-width="2.92"/><rect x="139.27" y="312.38" width="54.47" height="31.15" fill="#df642f"/><rect x="139.27" y="312.38" width="54.47" height="31.15" fill="none" stroke="#3e4147" stroke-linecap="round" stroke-linejoin="round" stroke-width="2.92"/><rect x="139.27" y="389.63" width="54.47" height="31.15" fill="#df642f"/><rect x="139.27" y="389.63" width="54.47" height="31.15" fill="none" stroke="#3e4147" stroke-linecap="round" stroke-linejoin="round" stroke-width="2.92"/><ellipse cx="145.36" cy="365.86" rx="10.01" ry="11.1" fill="#fdbe2a" stroke="#3e4147" stroke-miterlimit="10" stroke-width="2.92"/><polygon points="394.7 376.96 292.37 376.96 294.84 307.22 397.18 307.22 394.7 376.96" fill="#c4d7e9" stroke="#3e4147" stroke-linecap="round" stroke-linejoin="round" stroke-width="2.92"/><line x1="347.56" y1="307.22" x2="344.77" y2="376.96" fill="none" stroke="#3e4147" stroke-linecap="round" stroke-linejoin="round" stroke-width="2.92"/><line x1="397.18" y1="342.09" x2="293.6" y2="342.09" fill="none" stroke="#3e4147" stroke-linecap="round" stroke-linejoin="round" stroke-width="2.92"/><polygon points="410.38 370.38 279.78 370.38 286.59 396.52 403.57 396.52 410.38 370.38" fill="#cedd3e" stroke="#3e4147" stroke-miterlimit="10" stroke-width="2.92"/><path d="M296.35,255.82H290.1l-4.69-5.9-9.19-11.56L258.59,216.2l-32.23-40.47-52.48-65.81c-19.9-24.4-20.6-23.84-20.6-23.84s-.71.56,18.59,25.44l52.28,66L256.32,218l17.61,22.17q4.54,5.7,9.2,11.57,2.33,2.94,4.7,5.91l.59.74a1.72,1.72,0,0,0,.3.35H354l36.83,0c48.32-.23,48.32-1.42,48.32-1.42s0-1.19-48.32-1.42l-36.83,0Z" fill="#3e4147"/></svg>